<?xml version="1.0" encoding="UTF-8" standalone="no"?>
<!-- Created with Inkscape (http://www.inkscape.org/) -->

<svg
   width="1950"
   height="250"
   viewBox="0 0 515.93748 66.145831"
   version="1.1"
   id="svg1"
   inkscape:version="1.4.2 (ebf0e940d0, 2025-05-08)"
   sodipodi:docname="Perfect Paradox 8400 Logo With Text.svg"
   xml:space="preserve"
   inkscape:export-filename="Perfect Paradox 8400 Logo With Text.png"
   inkscape:export-xdpi="100"
   inkscape:export-ydpi="100"
   xmlns:inkscape="http://www.inkscape.org/namespaces/inkscape"
   xmlns:sodipodi="http://sodipodi.sourceforge.net/DTD/sodipodi-0.dtd"
   xmlns="http://www.w3.org/2000/svg"
   xmlns:svg="http://www.w3.org/2000/svg"><sodipodi:namedview
     id="namedview1"
     pagecolor="#505050"
     bordercolor="#eeeeee"
     borderopacity="1"
     inkscape:showpageshadow="0"
     inkscape:pageopacity="0"
     inkscape:pagecheckerboard="0"
     inkscape:deskcolor="#505050"
     inkscape:document-units="mm"
     inkscape:zoom="0.34787809"
     inkscape:cx="1050.6554"
     inkscape:cy="-8.6237107"
     inkscape:window-width="1920"
     inkscape:window-height="987"
     inkscape:window-x="0"
     inkscape:window-y="32"
     inkscape:window-maximized="1"
     inkscape:current-layer="layer1"
     showgrid="false"><inkscape:grid
       id="grid1"
       units="mm"
       originx="0"
       originy="0"
       spacingx="0.99999999"
       spacingy="0.99999999"
       empcolor="#0099e5"
       empopacity="0.30196078"
       color="#0099e5"
       opacity="0.14901961"
       empspacing="5"
       enabled="true"
       visible="false" /></sodipodi:namedview><defs
     id="defs1"><rect
       x="-94.48819"
       y="359.05511"
       width="1303.937"
       height="283.46457"
       id="rect1" /><rect
       x="-94.48819"
       y="359.05511"
       width="1303.937"
       height="283.46457"
       id="rect1-8" /><rect
       x="-94.48819"
       y="359.05511"
       width="1303.937"
       height="283.46457"
       id="rect1-4" /><rect
       x="-94.48819"
       y="359.05511"
       width="1303.937"
       height="283.46457"
       id="rect1-8-3" /><clipPath
       clipPathUnits="userSpaceOnUse"
       id="clipPath19"><path
         style="font-variation-settings:'wght' 700;fill:#ff0000;fill-opacity:1;stroke-width:1.149"
         d="m 46.25,112.00005 0.45843,132.2499 114,28 30.99957,-1.9999 79.00033,-39.99999 0.54168,-133.250008 -18.54168,-24.750001 -114,-26.999996 -78.999997,38.999999 z"
         id="path20" /></clipPath><clipPath
       clipPathUnits="userSpaceOnUse"
       id="clipPath20"><path
         style="font-variation-settings:'wght' 700;fill:#ff0000;fill-opacity:1;stroke-width:1.149"
         d="m 50.000001,105 0.45843,132.24989 113.999999,28.00001 30.99957,-1.9999 79.00032,-40 L 275.00001,90 256.45833,65.249999 142.45833,38.25 63.458333,77.250002 Z"
         id="path21" /></clipPath><rect
       x="-94.48819"
       y="359.05511"
       width="1726.7236"
       height="232.64886"
       id="rect37" /><rect
       x="-94.48819"
       y="359.05511"
       width="1755.1804"
       height="223.22243"
       id="rect38" /><rect
       x="-94.48819"
       y="359.05511"
       width="1303.937"
       height="283.46457"
       id="rect39" /><rect
       x="-94.48819"
       y="359.05511"
       width="1303.937"
       height="283.46457"
       id="rect40" /></defs><g
     inkscape:label="Layer 1"
     inkscape:groupmode="layer"
     id="layer1"><g
       id="g1"
       transform="matrix(0.21011323,0,0,0.21011323,3.4316887,-0.28254688)"><path
         style="fill:#d26efd;fill-opacity:1;stroke-width:1.149"
         d="m 154.45833,108.25 28,5.74776 v 77.7841 l -17.98403,-4.19814 -0.016,-56.33372 -10,-2 z"
         id="path4"
         sodipodi:nodetypes="ccccccc" /><path
         style="display:inline;fill:#691fa9;fill-opacity:1;stroke-width:1.149"
         d="m 286.45833,63.25 -104,51.34195 v 77.18991 l 13,3.01437 V 130.25 v -1 l 62,-30.000001 17,-9 V 223.25 l -79,40 -0.0737,-38.62792 -12.9263,-3.37208 v 69 l 104,-53 z"
         id="path10"
         sodipodi:nodetypes="ccccccccccccccc" /><path
         style="fill:#d26efd;fill-opacity:1;stroke-width:1.149"
         d="m 142.45833,58.25 -17,9 v 34 L 31.458334,78.249999 V 253.25 l 150.999996,37 v -69 l 46,12 29,-14 -115,-28 v 21 l 22,5 v 48 l -113.999996,-28 v -133 l 74.999996,18 v 65 l 17,4 z"
         id="path9"
         sodipodi:nodetypes="ccccccccccccccccccc" /><path
         style="display:inline;fill:#ba39fd;fill-opacity:1;stroke-width:1.149"
         d="M 31.458334,78.249999 136.45833,27.25 l 150,36 -104,51.34195 -28,-6.34195 v -9.000001 l 24,5.000001 50,-25 28,-14.000001 L 142.45833,38.25 63.458334,77.250001 125.45833,92.25 v 9 z"
         id="path22" /><path
         style="display:inline;fill:#ba39fd;fill-opacity:1;stroke-width:1.149"
         d="m 142.45833,191.25 -17,-4 -62.999997,31 v 13 z"
         id="path17" /><path
         style="display:inline;fill:#691fa9;fill-opacity:1;stroke-width:1.149"
         d="m 142.45833,191.25 v 21 l -51.999995,26 -28.000002,-7 z"
         id="path12"
         sodipodi:nodetypes="ccccc" /><path
         style="display:inline;fill:#ba39fd;fill-opacity:1;stroke-width:1.149"
         d="m 257.45833,219.25 v -10 l -103,-24 -12,6 z"
         id="path16"
         sodipodi:nodetypes="ccccc" /><path
         style="fill:#691fa9;fill-opacity:1;stroke-width:1.149"
         d="m 142.45833,58.25 12,2.999999 V 185.25 l -12,6 z"
         id="path13" /><path
         style="fill:#691fa9;fill-opacity:1;stroke-width:1.149"
         d="m 286.458,63.25 -28.99967,14.31226 -3.3e-4,21.687743 17,-9 V 223.25 l -79,40 v 0 l -12.99967,6.42066 -3.3e-4,20.57934 104,-53 z"
         id="path10-6"
         sodipodi:nodetypes="ccccccccccc" /><path
         style="display:inline;fill:#d26efd;fill-opacity:1;stroke-width:1.149"
         d="m 142.45833,58.25 -17,9 v 34 L 31.45843,78.249892 V 253.24989 l 151,37 v -69 l 45.9999,12.00011 29,-14 -115,-28 v 21 l 39.99967,9 3.3e-4,48.42066 -131.9999,-32.42077 3e-5,-154.351028 74.99987,18.351138 v 86 l 17,4 z"
         id="path9-5"
         sodipodi:nodetypes="ccccccccccccccccccc" /><path
         style="fill:#d26efd;fill-opacity:1;stroke-width:1.149"
         d="m 142.45833,38.25 v 20 l 86,21 28,-14.000001 z"
         id="path3" /><path
         style="fill:#d26efd;fill-opacity:1;stroke-width:1.149"
         d="m 257.45833,219.25 17,4 V 90.249999 l -17,9 z"
         id="path6" /><path
         style="fill:#ba39fd;fill-opacity:1;stroke-width:1.149"
         d="M 31.458334,78.249999 136.45833,27.25 l 150,36 -104,51.34195 -28,-6.34195 v -9.000001 l 24,5.000001 50,-25 28,-14.000001 -114,-26.999999 -78.999996,39.000001 v 0 L 50.45846,82.898862 Z"
         id="path7"
         sodipodi:nodetypes="cccccccccccccc" /><path
         style="fill:#691fa9;fill-opacity:1;stroke-width:1.149"
         d="m 50.458334,104.25 12,3 v 124 l -12,6 z"
         id="path8"
         sodipodi:nodetypes="ccccc" /><path
         style="fill:#691fa9;fill-opacity:1;stroke-width:1.149"
         d="M 142.45833,38.25 63.458334,77.250001 91.458333,84.25 l 33.999997,-17 17,-9 z"
         id="path11" /><path
         style="fill:#ba39fd;fill-opacity:1;stroke-width:1.149"
         d="m 50.458334,237.25 11.999999,-6 101.999997,25 v 9 z"
         id="path14" /><path
         style="fill:#ba39fd;fill-opacity:1;stroke-width:1.149"
         d="m 195.45833,263.25 79,-40 -17,-4 -62,30 z"
         id="path15" /><g
         id="g41"
         style="display:inline"><g
           id="g43"><path
             style="font-variation-settings:'wght' 700;display:inline;fill:none;fill-opacity:1;stroke:#000000;stroke-width:1.149;stroke-linejoin:round;stroke-opacity:1"
             d="m 125.45833,92.25 v 9 L 31.458334,78.249999 136.45833,27.250001 286.45799,63.25 l -103.99966,51.34195 -28,-6.34195 v -9.000001 l 24,5.000001 L 257,64.999999 142.45833,38.25 63.458333,77.250001 Z"
             id="path23" /><path
             style="font-variation-settings:'wght' 700;display:inline;fill:none;fill-opacity:1;stroke:#000000;stroke-width:1.149;stroke-linejoin:round;stroke-opacity:1"
             d="M 92,84 142.45833,58.249999 V 38.25 L 63.458333,77.250001 Z"
             id="path24"
             sodipodi:nodetypes="ccccc" /><path
             style="font-variation-settings:'wght' 700;display:inline;fill:none;fill-opacity:1;stroke:#000000;stroke-width:1.149;stroke-linejoin:round;stroke-opacity:1;paint-order:normal"
             d="M 142.45833,38.25 257,64.999999 l -28.54167,14.25 -86,-21 z"
             id="path25" /><path
             style="font-variation-settings:'wght' 700;display:inline;fill:none;fill-opacity:1;stroke:#000000;stroke-width:1.149;stroke-linejoin:round;stroke-opacity:1;paint-order:normal"
             d="m 125.45833,92.25 v -25 l 17,-9.000001 V 191.25 l -17,-4 v -65 l -74.999998,-18 9.8e-5,132.99989 113.9999,28.00011 v -48 l -22,-5 v -21 l 115,28 -29,14 -45.9999,-12.00011 V 290.2499 L 31.458334,253.25 V 78.249999 L 125.45833,101.25 Z"
             id="path26" /><path
             style="font-variation-settings:'wght' 700;display:inline;fill:none;fill-opacity:1;stroke:#000000;stroke-width:1.149;stroke-linejoin:round;stroke-opacity:1;paint-order:normal"
             d="M 154.45833,108.25 V 61.249998 l -12,-2.999999 V 191.25 l 12,-6 z"
             id="path27" /><path
             style="font-variation-settings:'wght' 700;display:inline;fill:none;fill-opacity:1;stroke:#000000;stroke-width:1.149;stroke-linejoin:round;stroke-opacity:1;paint-order:normal"
             d="m 164.4583,131.25 -10,-2 3e-5,-21 28,6.34195 v 77.18991 l -17.98403,-4.19814 z"
             id="path28" /><path
             style="font-variation-settings:'wght' 700;display:inline;fill:none;fill-opacity:1;stroke:#000000;stroke-width:1.149;stroke-linejoin:round;stroke-opacity:1;paint-order:normal"
             d="m 195.38463,224.62208 -12.9262,-3.37219 V 290.2499 L 286.45834,237.25 v -174 l -103.99967,51.34195 v 77.18991 l -28,-6.53186 -12,6 115,28 L 257.45841,99.250001 195.45873,129.25 v 65.54623 l -12.99999,-3.01437 74.99999,17.46814 v 10 l 16.99999,4 -79.00031,40 2.6e-4,-14 33,-16 -33,16 z"
             id="path29" /><path
             style="font-variation-settings:'wght' 700;display:inline;fill:none;fill-opacity:1;stroke:#000000;stroke-width:1.149;stroke-linejoin:round;stroke-opacity:1;paint-order:normal"
             d="M 274.45872,223.25 V 90.250001 l -17.00001,9 8e-4,119.999999 z"
             id="path30" /><path
             style="font-variation-settings:'wght' 700;display:inline;fill:none;fill-opacity:1;stroke:#000000;stroke-width:1.149;stroke-linejoin:round;stroke-opacity:1;paint-order:normal"
             d="m 164.45833,256.25 -73.999996,-18 51.999996,-26 v -21 l -17,-4 -62.999998,31 v -111 l -12,-3 v 133 l 12,-6 v -13 l 62.999998,-31 17,4 -79.999998,40 -12,6 113.999998,28 z"
             id="path31" /><path
             style="font-variation-settings:'wght' 700;display:inline;fill:none;fill-opacity:1;stroke:#000000;stroke-width:1.149;stroke-linejoin:round;stroke-opacity:1;paint-order:normal"
             d="m 62.458332,231.25 28.000002,7 51.999996,-26 2.6e-4,-21 z"
             id="path32" /></g><g
           id="g42"
           style="display:inline"><path
             style="font-variation-settings:'wght' 700;fill:none;fill-opacity:1;stroke:#000000;stroke-width:1.149;stroke-linejoin:round;stroke-opacity:1;paint-order:normal"
             d="m 125.45833,122.25 v -21 z"
             id="path40" /><path
             style="font-variation-settings:'wght' 700;fill:none;fill-opacity:1;stroke:#000000;stroke-width:1.149;stroke-linejoin:round;stroke-opacity:1;paint-order:normal"
             d="m 164.45833,217.25 18.0001,3.99989 z"
             id="path41" /></g></g></g><g
       id="g37"
       style="display:inline"
       transform="translate(346.42122,-365.15016)"><g
         id="g34"
         transform="translate(-267.30133,241.29793)"
         style="display:inline"><text
           xml:space="preserve"
           transform="matrix(0.26458333,0,0,0.26458333,11.985488,37.76569)"
           id="text33"
           style="font-style:normal;font-variant:normal;font-weight:normal;font-stretch:normal;font-size:181px;font-family:Oswald;-inkscape-font-specification:'Oswald, @wght=700';font-variant-ligatures:normal;font-variant-caps:normal;font-variant-numeric:normal;font-variant-east-asian:normal;font-variation-settings:'wght' 700;text-align:center;writing-mode:lr-tb;direction:ltr;white-space:pre;shape-inside:url(#rect37);display:inline;fill:#9801fe;fill-opacity:1;stroke:#000000;stroke-width:4.34268;stroke-linejoin:round;stroke-opacity:1"><tspan
             x="-38.20422"
             y="527.38347"
             id="tspan3">Perfect Paradox 8400</tspan></text><text
           xml:space="preserve"
           transform="matrix(0.26458333,0,0,0.26458333,6.1646538,35.119855)"
           id="text34"
           style="font-style:normal;font-variant:normal;font-weight:normal;font-stretch:normal;font-size:181px;font-family:Oswald;-inkscape-font-specification:'Oswald, @wght=700';font-variant-ligatures:normal;font-variant-caps:normal;font-variant-numeric:normal;font-variant-east-asian:normal;font-variation-settings:'wght' 700;text-align:center;writing-mode:lr-tb;direction:ltr;white-space:pre;shape-inside:url(#rect38);shape-padding:2.03263;display:inline;fill:#d9d9d9;fill-opacity:1;stroke:#000000;stroke-width:4.34268;stroke-linejoin:round;stroke-opacity:1"
           inkscape:label="text34"><tspan
             x="-23.976681"
             y="529.41667"
             id="tspan4">Perfect Paradox 8400</tspan></text></g></g></g></svg>
