<?xml version="1.0" encoding="UTF-8" standalone="no"?>
<!-- Created with Inkscape (http://www.inkscape.org/) -->

<svg
   width="1200"
   height="1200"
   viewBox="0 0 317.5 317.5"
   version="1.1"
   id="svg1"
   inkscape:version="1.4.1 (93de688d07, 2025-03-30)"
   sodipodi:docname="Perfect Paradox 8400 Outline.svg"
   xml:space="preserve"
   inkscape:export-filename="Perfect Paradox 8400 Outline.pdf"
   inkscape:export-xdpi="100"
   inkscape:export-ydpi="100"
   xmlns:inkscape="http://www.inkscape.org/namespaces/inkscape"
   xmlns:sodipodi="http://sodipodi.sourceforge.net/DTD/sodipodi-0.dtd"
   xmlns="http://www.w3.org/2000/svg"
   xmlns:svg="http://www.w3.org/2000/svg"><sodipodi:namedview
     id="namedview1"
     pagecolor="#505050"
     bordercolor="#eeeeee"
     borderopacity="1"
     inkscape:showpageshadow="0"
     inkscape:pageopacity="0"
     inkscape:pagecheckerboard="0"
     inkscape:deskcolor="#505050"
     inkscape:document-units="mm"
     inkscape:zoom="0.70710678"
     inkscape:cx="463.86205"
     inkscape:cy="497.80318"
     inkscape:window-width="1920"
     inkscape:window-height="987"
     inkscape:window-x="0"
     inkscape:window-y="32"
     inkscape:window-maximized="1"
     inkscape:current-layer="layer1"
     showgrid="true"
     showguides="true"><inkscape:grid
       id="grid1"
       units="mm"
       originx="0"
       originy="0"
       spacingx="0.99999999"
       spacingy="0.99999999"
       empcolor="#0099e5"
       empopacity="0.30196078"
       color="#0099e5"
       opacity="0.14901961"
       empspacing="5"
       enabled="true"
       visible="true" /></sodipodi:namedview><defs
     id="defs1"><inkscape:path-effect
       effect="powerclip"
       message=""
       id="path-effect132"
       is_visible="true"
       lpeversion="1"
       inverse="true"
       flatten="false"
       hide_clip="false" /><rect
       x="-94.48819"
       y="359.05511"
       width="1303.937"
       height="283.46457"
       id="rect1" /><rect
       x="-94.48819"
       y="359.05511"
       width="1303.937"
       height="283.46457"
       id="rect1-8" /><rect
       x="-94.48819"
       y="359.05511"
       width="1303.937"
       height="283.46457"
       id="rect1-4" /><rect
       x="-94.48819"
       y="359.05511"
       width="1303.937"
       height="283.46457"
       id="rect1-8-3" /><clipPath
       clipPathUnits="userSpaceOnUse"
       id="clipPath19"><path
         style="font-variation-settings:'wght' 700;fill:#ff0000;fill-opacity:1;stroke-width:1.149"
         d="m 46.25,112.00005 0.45843,132.2499 114,28 30.99957,-1.9999 79.00033,-39.99999 0.54168,-133.250008 -18.54168,-24.750001 -114,-26.999996 -78.999997,38.999999 z"
         id="path20" /></clipPath><clipPath
       clipPathUnits="userSpaceOnUse"
       id="clipPath20"><path
         style="font-variation-settings:'wght' 700;fill:#ff0000;fill-opacity:1;stroke-width:1.149"
         d="m 50.000001,105 0.45843,132.24989 113.999999,28.00001 30.99957,-1.9999 79.00032,-40 L 275.00001,90 256.45833,65.249999 142.45833,38.25 63.458333,77.250002 Z"
         id="path21" /></clipPath><rect
       x="-94.48819"
       y="359.05511"
       width="1303.937"
       height="283.46457"
       id="rect37" /><rect
       x="-94.48819"
       y="359.05511"
       width="1303.937"
       height="283.46457"
       id="rect38" /><rect
       x="-94.48819"
       y="359.05511"
       width="1303.937"
       height="283.46457"
       id="rect39" /><rect
       x="-94.48819"
       y="359.05511"
       width="1303.937"
       height="283.46457"
       id="rect40" /><rect
       x="-94.48819"
       y="359.05511"
       width="1303.937"
       height="283.46457"
       id="rect37-1" /><rect
       x="-94.48819"
       y="359.05511"
       width="1303.937"
       height="283.46457"
       id="rect38-7" /><rect
       x="-94.48819"
       y="359.05511"
       width="1303.937"
       height="283.46457"
       id="rect39-7" /><rect
       x="-94.48819"
       y="359.05511"
       width="1303.937"
       height="283.46457"
       id="rect40-1" /><filter
       id="mask-powermask-path-effect426_inverse"
       inkscape:label="filtermask-powermask-path-effect426"
       style="color-interpolation-filters:sRGB"
       height="100"
       width="100"
       x="-50"
       y="-50"><feColorMatrix
         id="mask-powermask-path-effect426_primitive1"
         values="1"
         type="saturate"
         result="fbSourceGraphic" /><feColorMatrix
         id="mask-powermask-path-effect426_primitive2"
         values="-1 0 0 0 1 0 -1 0 0 1 0 0 -1 0 1 0 0 0 1 0 "
         in="fbSourceGraphic" /></filter><inkscape:path-effect
       effect="fill_between_many"
       method="originald"
       linkedpaths="#lpe_path-effect132,0,1|"
       id="path-effect41" /></defs><g
     inkscape:label="Main"
     inkscape:groupmode="layer"
     id="layer1"><path
       id="path41"
       style="display:inline"
       d="M 134.5215 25.425838 C 134.30202 25.417608 134.08362 25.455242 133.87917 25.535392 C 99.576884 42.184448 65.282406 58.851141 30.983122 75.507019 C 29.958692 76.116569 28.406696 76.356221 28.105778 77.713086 L 28.105778 142.59078 C 28.113598 178.92429 28.089797 215.25877 28.117147 251.59188 C 28.019304 252.47683 28.048728 253.71165 29.093831 254.00982 C 78.420426 266.10318 127.75139 278.18337 177.07963 290.27169 C 178.40637 290.50182 179.69667 291.19748 181.0706 290.8887 C 215.14348 273.52433 249.2167 256.16043 283.28969 238.79628 C 284.16774 238.23796 285.59523 238.02601 285.74432 236.78141 C 285.76062 179.29982 285.75048 121.81519 285.74948 64.332507 C 285.82233 63.29538 285.81765 61.953023 284.71492 61.439661 C 239.79385 50.660225 194.87344 39.877871 149.9526 29.097449 C 144.80727 27.883804 139.67503 26.58879 134.5215 25.425838 z M 134.5799 28.129032 C 183.24212 39.806506 231.90421 51.48587 280.56634 63.164103 C 249.94293 78.281384 219.31938 93.398571 188.69598 108.51586 C 185.85466 109.88381 183.06814 111.35882 180.21691 112.65617 C 171.39108 110.68148 162.57284 108.67209 153.75186 106.67566 L 153.75186 100.35925 C 160.29101 101.7218 166.83011 103.08429 173.36926 104.44685 C 174.58284 104.57921 175.77328 105.22388 177.00573 104.92383 C 203.13267 91.867161 229.25953 78.810771 255.38648 65.754126 C 256.51075 65.412281 256.54155 63.617967 255.42782 63.240068 C 218.12547 54.505823 180.81243 45.811715 143.50597 37.092826 C 142.29045 36.932649 141.10675 36.243831 139.8633 36.538855 C 115.27141 48.676829 90.680488 60.816987 66.088989 72.955754 C 64.250095 73.935036 62.331488 74.677565 60.545142 75.79279 C 59.762945 76.428587 60.347285 77.60693 61.091878 78.009709 C 81.429611 82.931581 101.76786 87.852332 122.10573 92.773665 L 122.10573 99.046667 C 92.506114 91.804479 62.906103 84.562533 33.306494 77.320345 C 67.064306 60.92321 100.82209 44.526168 134.5799 28.129032 z M 141.75207 39.402246 C 178.20064 47.913965 214.64928 56.425919 251.09785 64.937638 C 242.82246 69.069799 234.54685 73.20162 226.27146 77.333781 C 198.09829 70.454224 169.92525 63.574805 141.75207 56.695247 L 141.75207 39.402246 z M 139.10572 39.861133 L 139.10572 56.923657 C 122.67212 65.310376 106.23845 73.697161 89.804854 82.083879 C 81.640791 80.15289 73.476354 78.22194 65.312292 76.290951 C 89.909948 64.147721 114.50806 52.004362 139.10572 39.861133 z M 141.75207 59.427897 L 151.10551 61.765739 L 151.10551 183.91384 C 147.98767 185.47309 144.86991 187.03234 141.75207 188.59159 L 141.75207 59.427897 z M 139.10572 59.931742 L 139.10572 189.06236 C 134.32121 187.93671 129.53659 186.81096 124.75208 185.68531 L 124.75208 67.529211 C 129.53659 64.996659 134.32121 62.464294 139.10572 59.931742 z M 153.75186 62.347616 C 176.71085 67.953736 199.6698 73.560107 222.62879 79.166227 C 207.1685 86.892138 191.70844 94.617713 176.24816 102.34362 L 153.75186 97.656055 L 153.75186 62.347616 z M 283.10572 64.861157 L 283.10572 235.92203 C 249.32121 253.13882 215.53672 270.35531 181.75221 287.57211 L 181.75221 222.44327 C 185.1806 223.3378 188.60898 224.2323 192.03737 225.12683 C 192.07407 237.49777 192.11999 249.8688 192.10559 262.23981 C 191.8556 263.23709 192.8507 264.35341 193.87705 263.97665 C 219.52299 251.01914 245.1492 238.01934 270.78761 225.04569 C 271.85666 224.40364 273.454 224.10703 273.75228 222.68925 L 273.75228 90.328337 C 274.00413 89.353823 273.12604 88.125564 272.06091 88.480387 C 266.50348 91.316793 261.01496 94.298878 255.49035 97.203369 C 235.19071 107.09174 214.84522 116.88834 194.52404 126.73335 C 193.64587 127.25331 192.2549 127.45732 192.11541 128.68569 C 192.09701 149.99364 192.11265 171.30402 192.10765 192.61305 C 188.65583 191.81292 185.20353 191.01281 181.7517 190.21268 L 181.7517 114.89635 L 181.75221 114.89635 C 215.53672 98.217965 249.32121 81.539543 283.10572 64.861157 z M 122.10573 68.568424 L 122.10573 90.052901 C 112.58555 87.749516 103.06486 85.446115 93.544678 83.142729 C 103.06486 78.284656 112.58555 73.426497 122.10573 68.568424 z M 30.752128 79.417891 C 61.2033 86.868412 91.654532 94.318979 122.10573 101.7695 L 122.10573 120.05469 C 97.912732 114.24863 73.71968 108.44268 49.526693 102.63663 C 48.655053 102.24937 47.245259 102.49403 47.11547 103.60918 C 47.09265 147.49465 47.112152 191.38173 47.105652 235.26781 C 46.968841 236.29042 47.182234 237.50008 48.175871 238.03302 C 85.935237 247.30608 123.69404 256.58169 161.45319 265.85561 C 162.29946 266.28378 163.67597 265.96437 163.73057 264.86135 C 163.77157 249.36819 163.74676 233.8729 163.75176 218.37892 L 179.10535 221.79318 L 179.10535 288.04495 C 129.65418 275.92907 80.2033 263.81318 30.752128 251.6973 L 30.752128 79.417891 z M 271.10748 91.929789 L 271.10748 221.06248 C 266.32298 219.93683 261.53834 218.81107 256.75384 217.68542 C 256.75284 178.3 256.75242 138.91474 256.75177 99.529325 C 261.53693 96.996122 266.32233 94.462992 271.10748 91.929789 z M 254.10542 100.84397 C 254.10642 136.25087 254.10684 171.65746 254.10749 207.06436 C 234.32234 202.45694 214.5371 197.84937 194.75194 193.24195 L 194.75194 129.56263 C 214.53645 119.98971 234.32091 110.41689 254.10542 100.84397 z M 49.752002 105.42767 C 52.869841 106.20697 55.987597 106.98623 59.105436 107.76552 L 59.105436 229.91413 C 55.987597 231.47338 52.869841 233.03263 49.752002 234.59188 L 49.752002 105.42767 z M 61.751786 108.29106 C 81.865826 113.11371 101.98852 117.94671 122.10573 122.77338 L 122.10573 185.90803 C 101.98789 195.80777 81.869625 205.70777 61.751786 215.60751 L 61.751786 108.29106 z M 153.75186 109.38867 C 162.20304 111.30273 170.65418 113.2169 179.10535 115.13096 L 179.10535 189.59566 L 163.76778 186.01552 C 163.76258 168.10342 163.75676 150.19137 163.75176 132.27926 C 163.70886 131.38705 164.02309 130.11487 163.01744 129.574 C 159.9673 128.81272 156.83598 128.30177 153.75186 127.64854 L 153.75186 109.38867 z M 153.75186 130.3476 C 156.20303 130.83718 158.65424 131.32665 161.10541 131.81624 C 161.11131 149.67756 161.11698 167.53924 161.12298 185.40057 C 158.66595 184.82765 156.20889 184.25473 153.75186 183.68181 L 153.75186 130.3476 z M 152.59379 186.12869 C 186.43039 194.0192 220.2684 201.90322 254.10749 209.78306 L 254.10749 217.04877 C 217.48835 208.13275 180.86925 199.21655 144.25011 190.30053 C 147.03136 188.90991 149.81254 187.51931 152.59379 186.12869 z M 123.58781 188.12909 C 127.91594 189.14797 132.2439 190.16687 136.57203 191.18575 C 111.63192 203.6545 86.69189 216.12298 61.751786 228.59173 L 61.751786 218.55669 C 82.363765 208.41411 102.97583 198.27166 123.58781 188.12909 z M 141.75207 192.41616 C 178.34517 201.32501 214.93832 210.23384 251.53142 219.1427 L 226.2911 231.33007 C 219.67761 229.60467 213.06394 227.87904 206.45045 226.15364 C 198.18357 223.98059 189.88665 221.86528 181.63853 219.65636 C 181.40389 219.40446 180.83329 219.58364 180.713 219.43932 C 167.71547 216.56942 154.73118 213.63981 141.75207 210.67603 L 141.75207 192.41616 z M 139.10572 192.87298 L 139.10572 210.91426 C 122.16301 219.38627 105.22 227.85827 88.277299 236.33028 C 80.258419 234.32572 72.239766 232.32072 64.220886 230.31617 C 89.182475 217.83505 114.14413 205.3541 139.10572 192.87298 z M 140.59969 213.12704 C 147.43517 214.67935 154.27009 216.23554 161.10541 217.78929 L 161.10541 254.05064 C 138.15359 248.46731 115.202 242.88409 92.250183 237.30076 C 108.36672 229.24282 124.48315 221.18499 140.59969 213.12704 z M 255.58388 220.12713 C 259.92253 221.14707 264.26107 222.1688 268.59963 223.18948 C 243.98374 235.65302 219.36783 248.11642 194.75194 260.57996 L 194.75194 249.56048 C 204.83723 244.67246 214.92269 239.78429 225.00797 234.89626 C 235.20003 229.97309 245.39183 225.05031 255.58388 220.12713 z M 194.68372 225.81619 C 203.99818 228.24587 213.31227 230.67598 222.62672 233.10567 L 194.74625 246.62526 C 194.72545 239.68906 194.70452 232.75238 194.68372 225.81619 z M 60.581832 232.13467 C 68.966416 234.22952 77.350848 236.3265 85.735335 238.42214 C 110.85102 244.5687 135.98332 250.65002 161.10541 256.77141 L 161.10541 263.04493 C 124.817 254.13217 88.528634 245.21927 52.240222 236.30651 C 55.020821 234.91589 57.801233 233.52529 60.581832 232.13467 z " /></g></svg>
